<svg width="1320" height="1301" viewBox="0 0 1320 1301" fill="none" xmlns="http://www.w3.org/2000/svg">
<path d="M983.333 801.337C983.333 1077.11 763.207 1300.67 491.667 1300.67C220.127 1300.67 0 1077.11 0 801.337C0 525.561 220.127 302 491.667 302C763.207 302 983.333 525.561 983.333 801.337Z" fill="#F183D5" fill-opacity="0.2"/>
<path d="M983.333 801.337C983.333 1077.11 763.207 1300.67 491.667 1300.67C220.127 1300.67 0 1077.11 0 801.337C0 525.561 220.127 302 491.667 302C763.207 302 983.333 525.561 983.333 801.337Z" stroke="black"/>
<path d="M1320 800.666C1320 967.083 1189.42 1101.99 1028.33 1101.99C867.25 1101.99 736.667 967.083 736.667 800.666C736.667 634.25 867.25 499.342 1028.33 499.342C1189.42 499.342 1320 634.25 1320 800.666Z" fill="#F183D5" fill-opacity="0.2"/>
<path d="M1320 800.666C1320 967.083 1189.42 1101.99 1028.33 1101.99C867.25 1101.99 736.667 967.083 736.667 800.666C736.667 634.25 867.25 499.342 1028.33 499.342C1189.42 499.342 1320 634.25 1320 800.666Z" stroke="black"/>
<path d="M1278.33 396.026C1278.33 614.746 1106.71 792.053 895 792.053C683.291 792.053 511.667 614.746 511.667 396.026C511.667 177.307 683.291 0 895 0C1106.71 0 1278.33 177.307 1278.33 396.026Z" fill="#F183D5" fill-opacity="0.2"/>
<path d="M1278.33 396.026C1278.33 614.746 1106.71 792.053 895 792.053C683.291 792.053 511.667 614.746 511.667 396.026C511.667 177.307 683.291 0 895 0C1106.71 0 1278.33 177.307 1278.33 396.026Z" stroke="black"/>
<mask id="path-4-outside-1_12_34" maskUnits="userSpaceOnUse" x="763" y="569" width="503" height="722" fill="black">
<rect fill="white" x="763" y="569" width="503" height="722"/>
<path d="M995.871 573.133C1087.99 573.133 1155.21 592.99 1197.53 632.703C1239.85 672.091 1261.01 726.453 1261.01 795.789C1261.01 827.039 1256.29 856.987 1246.85 885.633C1237.41 913.953 1221.95 939.181 1200.46 961.316C1179.3 983.452 1150.98 1001.03 1115.5 1014.05C1080.02 1026.75 1036.24 1033.09 984.152 1033.09H919.211V1287H767.844V573.133H995.871ZM988.059 697.156H919.211V909.07H969.016C997.336 909.07 1021.91 905.327 1042.75 897.84C1063.58 890.353 1079.69 878.634 1091.09 862.684C1102.48 846.733 1108.18 826.225 1108.18 801.16C1108.18 766.004 1098.41 739.962 1078.88 723.035C1059.35 705.783 1029.07 697.156 988.059 697.156Z"/>
</mask>
<path d="M995.871 573.133C1087.99 573.133 1155.21 592.99 1197.53 632.703C1239.85 672.091 1261.01 726.453 1261.01 795.789C1261.01 827.039 1256.29 856.987 1246.85 885.633C1237.41 913.953 1221.95 939.181 1200.46 961.316C1179.3 983.452 1150.98 1001.03 1115.5 1014.05C1080.02 1026.75 1036.24 1033.09 984.152 1033.09H919.211V1287H767.844V573.133H995.871ZM988.059 697.156H919.211V909.07H969.016C997.336 909.07 1021.91 905.327 1042.75 897.84C1063.58 890.353 1079.69 878.634 1091.09 862.684C1102.48 846.733 1108.18 826.225 1108.18 801.16C1108.18 766.004 1098.41 739.962 1078.88 723.035C1059.35 705.783 1029.07 697.156 988.059 697.156Z" fill="#B73958"/>
<path d="M1197.53 632.703L1194.79 635.62L1194.8 635.625L1194.81 635.631L1197.53 632.703ZM1246.85 885.633L1250.64 886.898L1250.65 886.885L1246.85 885.633ZM1200.46 961.316L1197.59 958.531L1197.58 958.541L1197.57 958.552L1200.46 961.316ZM1115.5 1014.05L1116.85 1017.82L1116.86 1017.81L1116.88 1017.81L1115.5 1014.05ZM919.211 1033.09V1029.09H915.211V1033.09H919.211ZM919.211 1287V1291H923.211V1287H919.211ZM767.844 1287H763.844V1291H767.844V1287ZM767.844 573.133V569.133H763.844V573.133H767.844ZM919.211 697.156V693.156H915.211V697.156H919.211ZM919.211 909.07H915.211V913.07H919.211V909.07ZM1078.88 723.035L1076.23 726.033L1076.24 726.046L1076.26 726.058L1078.88 723.035ZM995.871 577.133C1087.55 577.133 1153.55 596.914 1194.79 635.62L1200.27 629.786C1156.88 589.065 1088.44 569.133 995.871 569.133V577.133ZM1194.81 635.631C1236.15 674.113 1257.01 727.324 1257.01 795.789H1265.01C1265.01 725.582 1243.55 670.069 1200.26 629.775L1194.81 635.631ZM1257.01 795.789C1257.01 826.629 1252.35 856.153 1243.05 884.381L1250.65 886.885C1260.22 857.82 1265.01 827.449 1265.01 795.789H1257.01ZM1243.05 884.368C1233.81 912.099 1218.67 936.811 1197.59 958.531L1203.33 964.102C1225.22 941.551 1241.01 915.807 1250.64 886.898L1243.05 884.368ZM1197.57 958.552C1176.92 980.155 1149.16 997.437 1114.12 1010.3L1116.88 1017.81C1152.8 1004.62 1181.68 986.749 1203.35 964.08L1197.57 958.552ZM1114.15 1010.28C1079.23 1022.78 1035.94 1029.09 984.152 1029.09V1037.09C1036.53 1037.09 1080.8 1030.71 1116.85 1017.82L1114.15 1010.28ZM984.152 1029.09H919.211V1037.09H984.152V1029.09ZM915.211 1033.09V1287H923.211V1033.09H915.211ZM919.211 1283H767.844V1291H919.211V1283ZM771.844 1287V573.133H763.844V1287H771.844ZM767.844 577.133H995.871V569.133H767.844V577.133ZM988.059 693.156H919.211V701.156H988.059V693.156ZM915.211 697.156V909.07H923.211V697.156H915.211ZM919.211 913.07H969.016V905.07H919.211V913.07ZM969.016 913.07C997.674 913.07 1022.73 909.284 1044.1 901.604L1041.39 894.076C1021.1 901.37 996.997 905.07 969.016 905.07V913.07ZM1044.1 901.604C1065.6 893.879 1082.41 881.705 1094.34 865.009L1087.83 860.359C1076.97 875.563 1061.56 886.827 1041.39 894.076L1044.1 901.604ZM1094.34 865.009C1106.34 848.212 1112.18 826.826 1112.18 801.16H1104.18C1104.18 825.624 1098.62 845.254 1087.83 860.359L1094.34 865.009ZM1112.18 801.16C1112.18 765.283 1102.19 737.946 1081.5 720.012L1076.26 726.058C1094.63 741.979 1104.18 766.725 1104.18 801.16H1112.18ZM1081.53 720.037C1060.95 701.857 1029.52 693.156 988.059 693.156V701.156C1028.63 701.156 1057.75 709.708 1076.23 726.033L1081.53 720.037Z" fill="white" mask="url(#path-4-outside-1_12_34)"/>
<mask id="path-6-outside-2_12_34" maskUnits="userSpaceOnUse" x="94" y="416" width="595" height="743" fill="black">
<rect fill="white" x="94" y="416" width="595" height="743"/>
<path d="M400.84 744.121H684.043V1114.24C646.608 1126.61 607.708 1136.54 567.344 1144.02C526.979 1151.18 481.243 1154.77 430.137 1154.77C359.173 1154.77 298.952 1140.77 249.473 1112.77C199.993 1084.78 162.396 1043.44 136.68 988.75C110.964 934.062 98.1055 866.842 98.1055 787.09C98.1055 712.22 112.428 647.441 141.074 592.754C170.046 538.066 212.201 495.749 267.539 465.801C323.203 435.853 391.074 420.879 471.152 420.879C508.913 420.879 546.185 424.948 582.969 433.086C619.753 441.224 653.118 451.803 683.066 464.824L632.773 585.918C610.964 574.85 586.061 565.573 558.066 558.086C530.072 550.599 500.775 546.855 470.176 546.855C426.23 546.855 387.982 556.947 355.43 577.129C323.203 597.311 298.138 625.632 280.234 662.09C262.656 698.223 253.867 740.866 253.867 790.02C253.867 836.569 260.215 877.91 272.91 914.043C285.605 949.85 305.625 978.008 332.969 998.516C360.312 1018.7 395.957 1028.79 439.902 1028.79C461.387 1028.79 479.453 1027.81 494.102 1025.86C509.076 1023.58 523.073 1021.3 536.094 1019.02V870.098H400.84V744.121Z"/>
</mask>
<path d="M400.84 744.121H684.043V1114.24C646.608 1126.61 607.708 1136.54 567.344 1144.02C526.979 1151.18 481.243 1154.77 430.137 1154.77C359.173 1154.77 298.952 1140.77 249.473 1112.77C199.993 1084.78 162.396 1043.44 136.68 988.75C110.964 934.062 98.1055 866.842 98.1055 787.09C98.1055 712.22 112.428 647.441 141.074 592.754C170.046 538.066 212.201 495.749 267.539 465.801C323.203 435.853 391.074 420.879 471.152 420.879C508.913 420.879 546.185 424.948 582.969 433.086C619.753 441.224 653.118 451.803 683.066 464.824L632.773 585.918C610.964 574.85 586.061 565.573 558.066 558.086C530.072 550.599 500.775 546.855 470.176 546.855C426.23 546.855 387.982 556.947 355.43 577.129C323.203 597.311 298.138 625.632 280.234 662.09C262.656 698.223 253.867 740.866 253.867 790.02C253.867 836.569 260.215 877.91 272.91 914.043C285.605 949.85 305.625 978.008 332.969 998.516C360.312 1018.7 395.957 1028.79 439.902 1028.79C461.387 1028.79 479.453 1027.81 494.102 1025.86C509.076 1023.58 523.073 1021.3 536.094 1019.02V870.098H400.84V744.121Z" fill="black"/>
<path d="M400.84 744.121V740.121H396.84V744.121H400.84ZM684.043 744.121H688.043V740.121H684.043V744.121ZM684.043 1114.24L685.298 1118.04L688.043 1117.13V1114.24H684.043ZM567.344 1144.02L568.043 1147.96L568.058 1147.96L568.073 1147.96L567.344 1144.02ZM141.074 592.754L137.54 590.881L137.535 590.89L137.531 590.898L141.074 592.754ZM267.539 465.801L265.644 462.278L265.635 462.283L267.539 465.801ZM683.066 464.824L686.76 466.358L688.27 462.725L684.661 461.156L683.066 464.824ZM632.773 585.918L630.963 589.485L634.812 591.438L636.468 587.452L632.773 585.918ZM355.43 577.129L353.322 573.729L353.314 573.734L353.307 573.739L355.43 577.129ZM280.234 662.09L276.644 660.327L276.641 660.333L276.637 660.34L280.234 662.09ZM272.91 914.043L269.136 915.369L269.14 915.38L272.91 914.043ZM332.969 998.516L330.569 1001.72L330.581 1001.72L330.593 1001.73L332.969 998.516ZM494.102 1025.86L494.63 1029.82L494.667 1029.82L494.703 1029.81L494.102 1025.86ZM536.094 1019.02L536.783 1022.96L540.094 1022.38V1019.02H536.094ZM536.094 870.098H540.094V866.098H536.094V870.098ZM400.84 870.098H396.84V874.098H400.84V870.098ZM400.84 748.121H684.043V740.121H400.84V748.121ZM680.043 744.121V1114.24H688.043V744.121H680.043ZM682.788 1110.44C645.532 1122.75 606.808 1132.64 566.614 1140.09L568.073 1147.96C608.609 1140.44 647.684 1130.47 685.298 1118.04L682.788 1110.44ZM566.645 1140.08C526.559 1147.2 481.064 1150.77 430.137 1150.77V1158.77C481.423 1158.77 527.399 1155.17 568.043 1147.96L566.645 1140.08ZM430.137 1150.77C359.694 1150.77 300.189 1136.87 251.442 1109.29L247.503 1116.25C297.715 1144.66 358.652 1158.77 430.137 1158.77V1150.77ZM251.442 1109.29C202.731 1081.73 165.687 1041.04 140.299 987.048L133.06 990.452C159.105 1045.84 197.256 1087.83 247.503 1116.25L251.442 1109.29ZM140.299 987.048C114.9 933.035 102.105 866.434 102.105 787.09H94.1055C94.1055 867.251 107.027 935.09 133.06 990.452L140.299 987.048ZM102.105 787.09C102.105 712.73 116.329 648.615 144.618 594.61L137.531 590.898C108.528 646.268 94.1055 711.71 94.1055 787.09H102.105ZM144.609 594.626C173.204 540.649 214.786 498.898 269.443 469.319L265.635 462.283C209.615 492.6 166.887 535.484 137.54 590.881L144.609 594.626ZM269.434 469.323C324.381 439.762 391.563 424.879 471.152 424.879V416.879C390.585 416.879 322.026 431.944 265.644 462.278L269.434 469.323ZM471.152 424.879C508.623 424.879 545.605 428.916 582.105 436.991L583.833 429.18C546.765 420.979 509.203 416.879 471.152 416.879V424.879ZM582.105 436.991C618.675 445.082 651.792 455.588 681.472 468.492L684.661 461.156C654.445 448.019 620.83 437.366 583.833 429.18L582.105 436.991ZM679.372 463.29L629.079 584.384L636.468 587.452L686.76 466.358L679.372 463.29ZM634.584 582.351C612.485 571.137 587.315 561.768 559.1 554.222L557.033 561.95C584.807 569.378 609.442 578.564 630.963 589.485L634.584 582.351ZM559.1 554.222C530.75 546.64 501.104 542.855 470.176 542.855V550.855C500.445 550.855 529.394 554.558 557.033 561.95L559.1 554.222ZM470.176 542.855C425.598 542.855 386.596 553.099 353.322 573.729L357.537 580.529C389.368 560.794 426.863 550.855 470.176 550.855V542.855ZM353.307 573.739C320.406 594.343 294.852 623.248 276.644 660.327L283.825 663.853C301.424 628.015 326.001 600.279 357.553 580.519L353.307 573.739ZM276.637 660.34C258.741 697.126 249.867 740.393 249.867 790.02H257.867C257.867 741.339 266.571 699.319 283.831 663.84L276.637 660.34ZM249.867 790.02C249.867 836.926 256.263 878.73 269.136 915.369L276.684 912.717C264.167 877.091 257.867 836.212 257.867 790.02H249.867ZM269.14 915.38C282.068 951.843 302.526 980.683 330.569 1001.72L335.369 995.316C308.724 975.332 289.143 947.857 276.68 912.706L269.14 915.38ZM330.593 1001.73C358.803 1022.56 395.353 1032.79 439.902 1032.79V1024.79C396.561 1024.79 361.822 1014.84 335.344 995.297L330.593 1001.73ZM439.902 1032.79C461.492 1032.79 479.748 1031.81 494.63 1029.82L493.573 1021.89C479.159 1023.82 461.282 1024.79 439.902 1024.79V1032.79ZM494.703 1029.81C509.702 1027.53 523.729 1025.25 536.783 1022.96L535.404 1015.08C522.416 1017.36 508.449 1019.63 493.5 1021.9L494.703 1029.81ZM540.094 1019.02V870.098H532.094V1019.02H540.094ZM536.094 866.098H400.84V874.098H536.094V866.098ZM404.84 870.098V744.121H396.84V870.098H404.84Z" fill="white" mask="url(#path-6-outside-2_12_34)"/>
</svg>
